<?xml version="1.0" standalone="no"?>
<!DOCTYPE svg PUBLIC "-//W3C//DTD SVG 20010904//EN"
 "http://www.w3.org/TR/2001/REC-SVG-20010904/DTD/svg10.dtd">
<svg version="1.0" xmlns="http://www.w3.org/2000/svg"
 width="123.000000pt" height="30.000000pt" viewBox="0 0 123.000000 30.000000"
 preserveAspectRatio="xMidYMid meet">
<metadata>
Created by potrace 1.16, written by Peter Selinger 2001-2019
</metadata>
<g transform="translate(0.000000,30.000000) scale(0.100000,-0.100000)"
fill="#000000" stroke="none">
<path d="M131 288 c0 -9 -10 -19 -20 -23 -11 -3 -40 -26 -65 -52 l-46 -46 0
-83 0 -84 40 0 40 0 0 69 c0 46 -4 71 -12 74 -7 3 4 4 25 2 20 -1 37 2 37 7 0
5 5 6 10 3 6 -3 10 -1 10 4 0 6 -3 11 -8 11 -4 0 -6 20 -4 44 2 23 2 54 -1 67
-2 13 -5 16 -6 7z"/>
<path d="M480 260 l0 -40 280 0 280 0 0 40 0 40 -280 0 -280 0 0 -40z"/>
<path d="M1208 223 c7 -3 16 -2 19 1 4 3 -2 6 -13 5 -11 0 -14 -3 -6 -6z"/>
<path d="M472 140 c-8 -13 -12 -46 -11 -81 l2 -60 70 69 c38 38 67 74 64 79
-4 6 -30 11 -59 12 -44 1 -55 -2 -66 -19z"/>
<path d="M560 30 c0 -23 4 -30 20 -30 16 0 20 7 20 30 0 23 -4 30 -20 30 -16
0 -20 -7 -20 -30z"/>
</g>
</svg>
